<mxfile host="Electron" agent="Mozilla/5.0 (Macintosh; Intel Mac OS X 10_15_7) AppleWebKit/537.36 (KHTML, like Gecko) draw.io/28.1.2 Chrome/138.0.7204.243 Electron/37.4.0 Safari/537.36" version="28.1.2">
  <diagram name="Page-1" id="BFm4vvwlEBveOaRE7ADU">
    <mxGraphModel dx="1106" dy="800" grid="1" gridSize="10" guides="1" tooltips="1" connect="1" arrows="1" fold="1" page="1" pageScale="1" pageWidth="850" pageHeight="1100" math="0" shadow="0">
      <root>
        <mxCell id="0" />
        <mxCell id="1" parent="0" />
        <mxCell id="ekt-emGaBXAlrU6QTDCt-4" value="" style="rounded=0;whiteSpace=wrap;html=1;fillColor=#f5f5f5;fontColor=#333333;strokeColor=#666666;" vertex="1" parent="1">
          <mxGeometry x="250" y="260" width="280" height="80" as="geometry" />
        </mxCell>
        <mxCell id="ekt-emGaBXAlrU6QTDCt-1" value="TX&lt;div&gt;&lt;font style=&quot;font-size: 10px;&quot;&gt;&lt;i&gt;SOM1&lt;/i&gt;&lt;/font&gt;&lt;/div&gt;" style="rounded=0;whiteSpace=wrap;html=1;fillColor=#fad7ac;strokeColor=#b46504;" vertex="1" parent="1">
          <mxGeometry x="270" y="270" width="60" height="60" as="geometry" />
        </mxCell>
        <mxCell id="ekt-emGaBXAlrU6QTDCt-2" value="TX&lt;div&gt;&lt;font style=&quot;font-size: 10px;&quot;&gt;&lt;i&gt;Converter&lt;/i&gt;&lt;/font&gt;&lt;/div&gt;" style="rounded=0;whiteSpace=wrap;html=1;fillColor=#b0e3e6;strokeColor=#0e8088;" vertex="1" parent="1">
          <mxGeometry x="360" y="270" width="60" height="60" as="geometry" />
        </mxCell>
        <mxCell id="ekt-emGaBXAlrU6QTDCt-3" value="TX&lt;div&gt;&lt;font style=&quot;font-size: 10px;&quot;&gt;&lt;i&gt;SOM2&lt;/i&gt;&lt;/font&gt;&lt;/div&gt;" style="rounded=0;whiteSpace=wrap;html=1;fillColor=#d0cee2;strokeColor=#56517e;" vertex="1" parent="1">
          <mxGeometry x="450" y="270" width="60" height="60" as="geometry" />
        </mxCell>
        <mxCell id="ekt-emGaBXAlrU6QTDCt-5" value="mm" style="rounded=0;whiteSpace=wrap;html=1;fillColor=#f5f5f5;fontColor=#333333;strokeColor=#666666;" vertex="1" parent="1">
          <mxGeometry x="250" y="350" width="280" height="80" as="geometry" />
        </mxCell>
        <mxCell id="ekt-emGaBXAlrU6QTDCt-6" value="RX&lt;div&gt;&lt;font style=&quot;font-size: 10px;&quot;&gt;&lt;i&gt;SOM1&lt;/i&gt;&lt;/font&gt;&lt;/div&gt;" style="rounded=0;whiteSpace=wrap;html=1;fillColor=#fad7ac;strokeColor=#b46504;" vertex="1" parent="1">
          <mxGeometry x="270" y="360" width="60" height="60" as="geometry" />
        </mxCell>
        <mxCell id="ekt-emGaBXAlrU6QTDCt-7" value="RX&lt;div&gt;&lt;font style=&quot;font-size: 10px;&quot;&gt;&lt;i&gt;Converter&lt;/i&gt;&lt;/font&gt;&lt;/div&gt;" style="rounded=0;whiteSpace=wrap;html=1;fillColor=#b0e3e6;strokeColor=#0e8088;" vertex="1" parent="1">
          <mxGeometry x="360" y="360" width="60" height="60" as="geometry" />
        </mxCell>
        <mxCell id="ekt-emGaBXAlrU6QTDCt-8" value="RX&lt;div&gt;&lt;font style=&quot;font-size: 10px;&quot;&gt;&lt;i&gt;SOM2&lt;/i&gt;&lt;/font&gt;&lt;/div&gt;" style="rounded=0;whiteSpace=wrap;html=1;fillColor=#d0cee2;strokeColor=#56517e;" vertex="1" parent="1">
          <mxGeometry x="450" y="360" width="60" height="60" as="geometry" />
        </mxCell>
      </root>
    </mxGraphModel>
  </diagram>
</mxfile>
